<svg width="1080" height="1080" viewBox="0 0 1080 1080" fill="none" xmlns="http://www.w3.org/2000/svg">
<rect width="1080" height="1080" fill="#1AD12D"/>
<path d="M765.253 400.987C765.253 327.795 705.92 268.461 632.728 268.461C576.657 268.461 528.67 303.291 509.319 352.569L471.189 337.595C496.489 273.167 559.25 227.497 632.728 227.497C728.543 227.497 806.217 305.171 806.217 400.987C806.217 473.102 762.223 534.893 699.69 561.077L683.869 523.291C731.707 503.26 765.253 456.017 765.253 400.987Z" fill="white"/>
<path d="M662.943 696.715V483.205C662.943 419.789 611.535 368.381 548.119 368.381H273.783V327.417H548.119C634.159 327.417 703.907 397.165 703.907 483.205V696.715C703.907 782.755 634.159 852.503 548.119 852.503H273.783V811.539H548.119C611.535 811.539 662.943 760.131 662.943 696.715Z" fill="white"/>
<circle cx="476.095" cy="524.799" r="51.9972" fill="white"/>
<path d="M273.783 600.628H346.636C357.94 600.628 367.103 609.792 367.103 621.096C367.103 632.4 357.94 641.564 346.636 641.564H273.783V600.628Z" fill="white"/>
</svg>
